<svg xmlns="http://www.w3.org/2000/svg" fill="none" viewBox="0 0 24 24"><path fill="#fff" d="M3.75 12A8.25 8.25 0 0 1 12 3.75c2.78 0 5.198 1.376 6.682 3.495l-2.18-.007a.75.75 0 0 0-.004 1.5l3.55.01.45.002A.75.75 0 0 0 21.25 8V4a.75.75 0 0 0-1.5 0v2.162C17.99 3.792 15.2 2.25 12 2.25c-5.385 0-9.75 4.365-9.75 9.75a.75.75 0 0 0 1.5 0zm16.5 0A8.25 8.25 0 0 1 12 20.25c-2.78 0-5.198-1.376-6.682-3.495l2.18.007a.75.75 0 0 0 .004-1.5l-3.55-.01-.45-.002a.75.75 0 0 0-.752.75v4a.75.75 0 0 0 1.5 0v-2.162C6.01 20.208 8.8 21.75 12 21.75c5.385 0 9.75-4.365 9.75-9.75a.75.75 0 0 0-1.5 0z" class="color000000 svgShape"/></svg>